<svg xmlns="http://www.w3.org/2000/svg" width="480" height="520" viewBox="0 0 480 520" version="1.1"><path d="" stroke="none" fill="#000000" fill-rule="evenodd"/><path d="" stroke="none" fill="#000000" fill-rule="evenodd"/><path d="" stroke="none" fill="#000000" fill-rule="evenodd"/><path d="M 247.500 39.390 C 243.721 40.842, 240.538 42.624, 238.828 44.248 C 238.098 44.942, 235.029 47.532, 232.010 50.004 C 228.990 52.477, 225.390 55.460, 224.010 56.632 C 221.188 59.030, 207.315 70.454, 204.985 72.300 C 201.223 75.279, 192.378 82.606, 191.225 83.699 C 190.524 84.363, 187.824 86.615, 185.225 88.703 C 182.626 90.792, 180.275 92.731, 180 93.014 C 179.725 93.296, 177.025 95.540, 174 98 C 170.975 100.460, 168.275 102.710, 168 103 C 167.725 103.290, 165.025 105.540, 162 108 C 158.975 110.460, 156.275 112.710, 156 113 C 155.725 113.290, 153.025 115.514, 150 117.942 C 135.835 129.313, 129.314 138.007, 127.079 148.500 C 124.432 160.927, 124 164.870, 124 176.589 C 124 193.847, 125.072 195.884, 138.352 203.876 C 142.121 206.144, 145.364 208, 145.558 208 C 145.753 208, 148.294 209.413, 151.206 211.140 C 156.204 214.104, 158.489 215.428, 166.250 219.853 C 168.037 220.873, 174.123 224.473, 179.774 227.853 C 185.424 231.234, 190.487 234, 191.024 234 C 191.561 234, 192 234.450, 192 235 C 192 235.550, 192.430 236, 192.956 236 C 193.482 236, 196.294 237.413, 199.206 239.140 C 204.427 242.236, 207.759 244.163, 214.367 247.908 C 216.219 248.958, 220.765 251.658, 224.469 253.908 C 228.173 256.159, 231.376 258, 231.586 258 C 231.796 258, 238.732 262.050, 247 267 C 255.268 271.950, 262.475 276, 263.016 276 C 263.557 276, 264 276.450, 264 277 C 264 277.550, 264.439 278, 264.976 278 C 265.513 278, 270.576 280.769, 276.226 284.153 C 281.877 287.538, 288.975 291.657, 292 293.306 C 295.025 294.956, 298.694 297.137, 300.154 298.153 C 301.614 299.169, 303.080 300, 303.412 300 C 303.744 300, 309.247 303.150, 315.640 307 C 322.033 310.850, 327.419 314, 327.608 314 C 327.798 314, 332.474 316.700, 338 320 C 343.526 323.300, 348.487 326, 349.024 326 C 349.561 326, 350 326.398, 350 326.883 C 350 327.369, 350.788 328.017, 351.750 328.322 C 353.249 328.797, 362.773 334.093, 368.408 337.584 C 369.985 338.561, 370.055 339.452, 369.121 346.584 C 367.891 355.970, 366.508 369.016, 364.994 385.500 C 362.753 409.911, 363.326 407.577, 358.685 411.220 C 356.387 413.024, 353.830 415.045, 353.003 415.712 C 352.176 416.378, 344.300 422.614, 335.500 429.569 C 326.700 436.524, 317.517 443.854, 315.093 445.857 C 312.669 447.861, 309.744 450.157, 308.593 450.959 C 307.442 451.762, 305.899 453.006, 305.163 453.724 C 304.428 454.443, 302.178 456.261, 300.163 457.765 C 298.149 459.269, 295.899 461.069, 295.163 461.765 C 294.428 462.461, 292.178 464.261, 290.163 465.765 C 288.149 467.269, 285.899 469.069, 285.163 469.765 C 284.428 470.461, 282.178 472.258, 280.163 473.759 C 278.149 475.260, 276.275 476.741, 276 477.048 C 275.599 477.498, 264.973 486.025, 256.985 492.308 C 253.940 494.703, 244.446 502.564, 241.760 504.915 C 233.829 511.856, 241.057 510.035, 263.753 499.376 C 267.742 497.503, 273.480 494.852, 276.503 493.485 C 279.526 492.118, 284.475 489.875, 287.500 488.500 C 290.525 487.125, 295.475 484.875, 298.500 483.500 C 306.846 479.706, 313.988 476.480, 319.250 474.125 C 321.863 472.956, 326.137 471.044, 328.750 469.875 C 331.363 468.706, 335.863 466.681, 338.750 465.375 C 341.638 464.069, 346.363 461.931, 349.250 460.625 C 356.168 457.496, 363.669 454.134, 368 452.222 C 406.754 435.109, 407.012 434.712, 413.003 383 C 413.608 377.775, 414.516 370.125, 415.021 366 C 415.526 361.875, 416.426 354.450, 417.021 349.500 C 418.449 337.611, 419.636 328.392, 421.099 317.822 C 422.711 306.175, 420.676 297.633, 414.922 291.888 C 412.765 289.733, 400.741 282, 399.549 282 C 399.359 282, 396.242 280.200, 392.620 278 C 388.999 275.800, 385.578 274, 385.018 274 C 384.458 274, 384 273.550, 384 273 C 384 272.450, 383.542 272, 382.982 272 C 382.422 272, 379.001 270.200, 375.380 268 C 371.758 265.800, 368.624 264, 368.414 264 C 368.204 264, 361.268 259.950, 353 255 C 344.732 250.050, 337.525 246, 336.984 246 C 336.443 246, 336 245.550, 336 245 C 336 244.450, 335.561 244, 335.024 244 C 334.487 244, 329.526 241.300, 324 238 C 318.474 234.700, 313.513 232, 312.976 232 C 312.439 232, 312 231.550, 312 231 C 312 230.450, 311.561 230, 311.024 230 C 310.487 230, 305.526 227.300, 300 224 C 294.474 220.700, 289.798 218, 289.608 218 C 289.419 218, 284.033 214.850, 277.640 211 C 271.247 207.150, 265.562 204, 265.008 204 C 264.454 204, 264 203.602, 264 203.117 C 264 202.631, 263.212 201.968, 262.250 201.644 C 261.288 201.320, 259.150 200.245, 257.500 199.255 C 246.163 192.455, 241.773 190, 240.946 190 C 240.426 190, 240 189.550, 240 189 C 240 188.450, 239.542 188, 238.983 188 C 238.424 188, 234.711 186.033, 230.733 183.629 C 226.755 181.226, 221.700 178.304, 219.500 177.137 C 217.300 175.969, 213.250 173.666, 210.500 172.017 C 207.750 170.368, 203.989 168.266, 202.142 167.345 L 198.785 165.670 203.658 161.085 C 206.338 158.563, 210.999 154.481, 214.016 152.014 C 217.032 149.546, 219.725 147.296, 220 147.014 C 220.275 146.731, 223.425 144.031, 227 141.014 C 230.575 137.997, 234.074 134.980, 234.775 134.311 C 235.476 133.641, 238.176 131.387, 240.775 129.301 C 243.374 127.215, 246.175 124.831, 247 124.004 C 258.096 112.877, 261.269 111.844, 269.500 116.677 C 271.700 117.968, 278.789 121.724, 285.253 125.022 C 291.717 128.320, 300.042 132.652, 303.753 134.648 C 311.998 139.084, 322.897 144.798, 337.684 152.436 C 351.099 159.365, 349.956 156.802, 351.090 182.500 C 352.173 207.040, 352.072 206.758, 361.349 211.035 C 365.282 212.848, 372.775 216.316, 378 218.743 C 383.225 221.169, 389.750 224.188, 392.500 225.451 C 395.250 226.715, 400.558 229.155, 404.295 230.874 C 414.967 235.784, 414.379 236.642, 413.626 217.250 C 413.268 208.037, 412.524 193.525, 411.973 185 C 410.371 160.226, 409.105 140.321, 408.395 128.724 C 407.658 116.678, 408.029 117.274, 397.750 111.615 C 395.137 110.177, 390.974 107.883, 388.497 106.518 C 386.020 105.153, 379.608 101.713, 374.247 98.873 C 368.886 96.033, 362.025 92.362, 359 90.714 C 351.121 86.423, 340.936 80.993, 330 75.253 C 324.775 72.511, 316.675 68.237, 312 65.757 C 307.325 63.276, 296.975 57.877, 289 53.759 C 281.025 49.641, 272.025 44.969, 269 43.377 C 258.613 37.911, 253.717 37.003, 247.500 39.390" stroke="none" fill="#5b5b5b" fill-rule="evenodd"/><path d="M 211.500 36.750 C 208.200 38.090, 203.250 40.213, 200.500 41.468 C 195.401 43.795, 189.537 46.428, 181.500 50 C 171.390 54.493, 167.169 56.399, 160.500 59.483 C 156.650 61.263, 151.925 63.406, 150 64.244 C 142.718 67.414, 137.207 69.931, 128 74.291 C 122.775 76.765, 116.025 79.906, 113 81.269 C 102.156 86.159, 97.449 88.254, 94.250 89.616 C 67.071 101.187, 63.873 103.397, 58.541 114.287 C 54.799 121.928, 53.492 130.219, 46.050 193.500 C 44.885 203.400, 43.498 214.511, 42.966 218.192 C 40.313 236.569, 42.584 244.796, 52.063 251.136 C 57.858 255.012, 89.635 273.712, 113 286.996 C 121.729 291.958, 143.732 304.874, 163 316.345 C 170.425 320.766, 179.425 326.021, 183 328.024 C 186.575 330.027, 191.750 332.927, 194.500 334.469 C 197.250 336.010, 203.775 339.850, 209 343.003 C 214.225 346.156, 224.575 352.226, 232 356.492 C 268.006 377.181, 266.528 376.031, 261.250 379.242 C 259.738 380.162, 256.925 382.410, 255 384.237 C 253.075 386.065, 245.875 392.253, 239 397.989 C 232.125 403.725, 226.275 408.662, 226 408.961 C 225.286 409.736, 205.814 426.313, 203.927 427.752 C 202.640 428.733, 200.546 428.031, 192.427 423.896 C 186.967 421.116, 171.925 413.461, 159 406.886 C 146.075 400.311, 132.575 393.252, 129 391.200 C 125.425 389.148, 120.144 386.126, 117.264 384.485 C 112.171 381.581, 112.029 381.378, 112.022 377 C 112.014 372.251, 110.180 345.367, 109.388 338.398 C 109.053 335.447, 108.302 333.987, 106.711 333.196 C 105.495 332.591, 100.563 330.274, 95.750 328.048 C 90.938 325.822, 83.063 322.170, 78.250 319.934 C 62.753 312.733, 51.420 308, 49.676 308 C 48.647 308, 49.325 328.706, 50.967 347.420 C 51.454 352.964, 52.359 365.825, 52.979 376 C 56.074 426.770, 55.473 423.482, 62.318 427.046 C 64.618 428.244, 68.862 430.523, 71.750 432.112 C 87.199 440.611, 97.889 446.384, 109.500 452.499 C 114.450 455.105, 120.750 458.471, 123.500 459.978 C 128.204 462.556, 134.922 466.100, 160.750 479.632 C 184.724 492.192, 190.771 495.390, 196.651 498.621 C 205.278 503.360, 215.643 503.206, 220.821 498.262 C 221.548 497.568, 222.453 497, 222.832 497 C 223.210 497, 224.655 495.988, 226.043 494.750 C 227.430 493.513, 231.925 489.584, 236.032 486.019 C 240.140 482.455, 243.725 479.293, 244 478.993 C 244.275 478.694, 246.525 476.897, 249 475 C 251.475 473.103, 253.725 471.315, 254 471.026 C 254.275 470.737, 256.626 468.792, 259.225 466.703 C 261.824 464.615, 264.524 462.359, 265.225 461.689 C 265.926 461.019, 268.525 458.914, 271 457.011 C 273.475 455.109, 275.725 453.309, 276 453.012 C 276.275 452.715, 278.971 450.454, 281.990 447.986 C 285.010 445.519, 288.610 442.531, 289.990 441.346 C 292.657 439.057, 307.139 426.916, 310.503 424.148 C 311.605 423.242, 314.530 420.936, 317.003 419.025 C 335.428 404.789, 345.920 364.249, 335.500 347.558 C 331.866 341.737, 331.456 341.478, 270 306.226 C 257.075 298.812, 242.225 290.169, 237 287.021 C 231.775 283.872, 224.575 279.729, 221 277.813 C 217.425 275.897, 203.025 267.425, 189 258.985 C 174.975 250.546, 160.575 241.997, 157 239.987 C 153.425 237.978, 148.250 235.070, 145.500 233.526 C 142.750 231.981, 137.245 228.756, 133.267 226.359 C 129.289 223.961, 125.843 222, 125.610 222 C 125.265 222, 110.565 213.660, 99.051 206.931 C 92.096 202.867, 92.263 204.985, 95.981 168 C 96.506 162.775, 97.405 153.775, 97.978 148 C 99.211 135.573, 99.701 133.152, 101.299 131.572 C 101.960 130.920, 108.350 125.753, 115.500 120.089 C 122.650 114.426, 129.534 108.924, 130.798 107.862 C 133.574 105.528, 165.968 79.720, 171.417 75.500 C 178.447 70.057, 201.490 51.640, 202 51.058 C 202.275 50.744, 205.423 48.015, 208.996 44.994 C 219.848 35.817, 220.316 35.332, 218.838 34.798 C 218.102 34.533, 214.800 35.411, 211.500 36.750" stroke="none" fill="#1e73b0" fill-rule="evenodd"/></svg>